<svg data-v-fde0c5aa="" xmlns="http://www.w3.org/2000/svg" viewBox="0 0 300 300" class="iconLeftSlogan"><!----><defs data-v-fde0c5aa=""><!----></defs><rect data-v-fde0c5aa="" fill="#EAEDF9" x="0" y="0" width="300px" height="300px" class="logo-background-square"></rect><defs data-v-fde0c5aa=""><!----></defs><g data-v-fde0c5aa="" id="1c0871e4-21c8-4e1c-acaa-2b509a013932" fill="#202A4F" transform="matrix(3.0612510958826094,0,0,3.0612510958826094,117.9579435676245,101.85681122852523)"><path d="M1.72 17.60L0.82 17.60L0.82 10.38L1.72 10.38L1.72 11.57Q2.67 10.63 3.38 10.41L3.38 10.41Q3.72 10.31 4.22 10.31Q4.73 10.31 5.20 10.64Q5.67 10.96 5.82 11.63L5.82 11.63Q6.81 10.64 7.52 10.42L7.52 10.42Q7.85 10.31 8.23 10.31L8.23 10.31Q9.02 10.31 9.52 10.79Q10.03 11.27 10.03 12.22L10.03 12.22L10.03 17.60L9.13 17.60L9.13 12.22Q9.13 11.71 8.76 11.39Q8.39 11.07 7.97 11.07L7.97 11.07Q6.97 11.07 5.88 12.26L5.88 12.26L5.88 17.60L4.98 17.60L4.98 12.22Q4.98 11.71 4.61 11.39Q4.25 11.07 3.82 11.07L3.82 11.07Q2.81 11.07 1.72 12.26L1.72 12.26L1.72 17.60ZM11.27 15.84Q11.27 15.35 11.40 14.98Q11.52 14.62 11.78 14.33Q12.04 14.05 12.38 13.83Q12.71 13.61 13.21 13.43L13.21 13.43Q14.12 13.11 15.44 12.85L15.44 12.85Q15.44 11.77 15.02 11.41L15.02 11.41Q14.65 11.09 13.95 11.09L13.95 11.09Q13.08 11.09 12.46 11.74L12.46 11.74Q12.20 12.01 12.09 12.22L12.09 12.22L11.44 11.79Q12.21 10.32 14.05 10.32L14.05 10.32Q15.70 10.32 16.15 11.59L16.15 11.59Q16.34 12.10 16.34 12.83L16.34 12.83L16.34 16.58Q16.34 16.78 16.41 17.12Q16.49 17.47 16.55 17.60L16.55 17.60L15.64 17.60Q15.44 17.49 15.44 16.45L15.44 16.45Q14.47 17.68 13.31 17.68L13.31 17.68Q12.02 17.68 11.53 16.78L11.53 16.78Q11.27 16.32 11.27 15.84ZM12.35 15.05L12.35 15.05Q12.17 15.37 12.17 15.87Q12.17 16.38 12.53 16.65Q12.89 16.92 13.32 16.92Q13.75 16.92 14.09 16.79Q14.42 16.66 14.69 16.45L14.69 16.45Q15.19 16.08 15.44 15.78L15.44 15.78L15.44 13.62Q14.14 13.95 13.90 14.03L13.90 14.03Q12.69 14.42 12.35 15.05ZM18.85 17.60L17.94 17.60L17.94 10.38L18.85 10.38L18.85 11.57Q19.79 10.63 20.51 10.41L20.51 10.41Q20.84 10.31 21.35 10.31Q21.85 10.31 22.32 10.64Q22.79 10.96 22.94 11.63L22.94 11.63Q23.93 10.64 24.64 10.42L24.64 10.42Q24.98 10.31 25.35 10.31L25.35 10.31Q26.14 10.31 26.65 10.79Q27.15 11.27 27.15 12.22L27.15 12.22L27.15 17.60L26.25 17.60L26.25 12.22Q26.25 11.71 25.88 11.39Q25.52 11.07 25.09 11.07L25.09 11.07Q24.09 11.07 23.00 12.26L23.00 12.26L23.00 17.60L22.10 17.60L22.10 12.22Q22.10 11.71 21.73 11.39Q21.37 11.07 20.95 11.07L20.95 11.07Q19.93 11.07 18.85 12.26L18.85 12.26L18.85 17.60ZM29.69 17.60L28.79 17.60L28.79 7.24L29.69 7.24L29.69 11.57Q30.70 10.60 31.35 10.40L31.35 10.40Q31.68 10.31 32.05 10.31L32.05 10.31Q32.83 10.31 33.34 10.79Q33.84 11.27 33.84 12.22L33.84 12.22L33.84 17.60L32.94 17.60L32.94 12.22Q32.94 11.71 32.58 11.39Q32.21 11.07 31.79 11.07L31.79 11.07Q30.78 11.07 29.69 12.26L29.69 12.26L29.69 17.60ZM35.09 15.84Q35.09 15.35 35.21 14.98Q35.33 14.62 35.60 14.33Q35.86 14.05 36.20 13.83Q36.53 13.61 37.03 13.43L37.03 13.43Q37.94 13.11 39.25 12.85L39.25 12.85Q39.25 11.77 38.83 11.41L38.83 11.41Q38.47 11.09 37.76 11.09L37.76 11.09Q36.90 11.09 36.28 11.74L36.28 11.74Q36.01 12.01 35.91 12.22L35.91 12.22L35.26 11.79Q36.03 10.32 37.86 10.32L37.86 10.32Q39.51 10.32 39.97 11.59L39.97 11.59Q40.15 12.10 40.15 12.83L40.15 12.83L40.15 16.58Q40.15 16.78 40.23 17.12Q40.30 17.47 40.37 17.60L40.37 17.60L39.46 17.60Q39.25 17.49 39.25 16.45L39.25 16.45Q38.29 17.68 37.13 17.68L37.13 17.68Q35.84 17.68 35.34 16.78L35.34 16.78Q35.09 16.32 35.09 15.84ZM36.16 15.05L36.16 15.05Q35.99 15.37 35.99 15.87Q35.99 16.38 36.35 16.65Q36.70 16.92 37.14 16.92Q37.57 16.92 37.90 16.79Q38.23 16.66 38.51 16.45L38.51 16.45Q39.01 16.08 39.25 15.78L39.25 15.78L39.25 13.62Q37.95 13.95 37.71 14.03L37.71 14.03Q36.51 14.42 36.16 15.05ZM41.49 16.23L41.49 16.23L42.16 15.79Q42.53 16.35 42.97 16.63Q43.42 16.91 44.06 16.91L44.06 16.91Q44.73 16.91 45.14 16.54L45.14 16.54Q45.49 16.24 45.49 15.80Q45.49 15.37 45.34 15.11Q45.19 14.85 44.92 14.68L44.92 14.68Q44.46 14.42 43.97 14.30Q43.47 14.18 43.19 14.09Q42.90 13.99 42.60 13.82Q42.30 13.64 42.08 13.43L42.08 13.43Q41.58 12.95 41.58 12.15Q41.58 11.35 42.22 10.83Q42.86 10.31 43.85 10.31L43.85 10.31Q45.02 10.31 45.83 11.15L45.83 11.15Q45.98 11.31 46.08 11.46L46.08 11.46L45.46 11.92Q45.41 11.87 45.27 11.72Q45.12 11.57 45.08 11.53L45.08 11.53L44.91 11.38Q44.78 11.27 44.70 11.24L44.70 11.24L44.47 11.16Q44.25 11.07 43.73 11.07Q43.21 11.07 42.83 11.37Q42.46 11.67 42.46 12.02Q42.46 12.38 42.58 12.60Q42.70 12.81 42.95 12.97L42.95 12.97Q43.35 13.21 43.87 13.37Q44.39 13.53 44.55 13.58Q44.72 13.64 45.00 13.75Q45.29 13.86 45.45 13.97Q45.61 14.07 45.81 14.24Q46.02 14.40 46.13 14.59L46.13 14.59Q46.40 15.05 46.40 15.60L46.40 15.60Q46.40 16.51 45.71 17.09Q45.01 17.67 44.11 17.67Q43.20 17.67 42.58 17.33Q41.96 16.98 41.49 16.23Z"></path></g><defs data-v-fde0c5aa=""><linearGradient data-v-fde0c5aa="" gradientTransform="rotate(25)" id="1d71384f-2f88-408f-a22e-917a93919b83" x1="0%" y1="0%" x2="100%" y2="0%"><stop data-v-fde0c5aa="" offset="0%" stop-color="#395ECA" stop-opacity="1"></stop><stop data-v-fde0c5aa="" offset="100%" stop-color="#848BD8" stop-opacity="1"></stop></linearGradient></defs><g data-v-fde0c5aa="" id="7feb5944-afbc-426d-bf88-7f57b792c01c" stroke="none" fill="url(#1d71384f-2f88-408f-a22e-917a93919b83)" transform="matrix(2.1083802951360147,0,0,2.1083802951360147,40,116.26591527782377)"><path d="M11.579 32H32L21.789 14.314z"></path><circle cx="8.683" cy="8.683" r="8.683"></circle></g><defs data-v-fde0c5aa=""><!----></defs><g data-v-fde0c5aa="" id="8d1f2eaf-ee98-4b50-8169-d202f596df7b" fill="#202A4F" transform="matrix(0.4866993245924753,0,0,0.4866993245924753,120.09827796230371,164.64617538392454)"><path d="M0.76 8.02L0.76 8.02Q0.76 6.86 1.23 5.83L1.23 5.83Q1.70 4.85 2.45 4.27L2.45 4.27Q3.19 3.69 4.09 3.37Q4.98 3.05 5.82 3.05L5.82 3.05Q6.69 3.05 7.36 3.16L7.36 3.16Q7.99 3.26 8.29 3.37L8.29 3.37Q8.59 3.48 8.63 3.48L8.63 3.48Q8.80 3.48 8.82 3.41L8.82 3.41Q8.85 3.33 8.85 3.09L8.85 3.09L8.85 2.97L9.38 2.97Q9.42 4.30 9.55 5.64L9.55 5.64L9.04 5.65Q9.02 5.40 9.00 5.26L9.00 5.26Q9.00 5.20 9.00 5.13Q8.99 5.07 8.98 5.02Q8.98 4.98 8.98 4.95L8.98 4.95Q8.95 4.84 8.95 4.74L8.95 4.74Q8.95 4.68 8.91 4.59L8.91 4.59Q8.91 4.57 8.88 4.55Q8.85 4.52 8.85 4.50L8.85 4.50Q8.82 4.44 8.75 4.41L8.75 4.41Q8.71 4.38 8.68 4.37Q8.65 4.36 8.63 4.35L8.63 4.35Q8.61 4.35 8.59 4.33Q8.57 4.31 8.52 4.29Q8.48 4.27 8.44 4.25L8.44 4.25Q8.22 4.16 8.19 4.14L8.19 4.14Q7.84 3.96 7.20 3.83L7.20 3.83Q6.53 3.71 5.87 3.71L5.87 3.71Q4.14 3.71 3.05 4.84L3.05 4.84Q1.94 5.99 1.95 7.62L1.95 7.62Q1.95 9.35 3.17 10.69L3.17 10.69Q4.37 12.02 6.19 12.02L6.19 12.02Q7.19 12.02 8.13 11.49L8.13 11.49Q9.08 10.94 9.11 10.58L9.11 10.58L9.15 9.41L9.65 9.41L9.56 11.45Q9.50 11.49 9.37 11.57L9.37 11.57Q9.31 11.60 8.85 11.85L8.85 11.85Q8.47 12.05 8.03 12.23L8.03 12.23Q7.66 12.39 7.01 12.51L7.01 12.51Q6.41 12.63 5.84 12.64L5.84 12.64Q3.46 12.64 2.10 11.39L2.10 11.39Q0.76 10.14 0.76 8.02ZM17.69 12.41L17.68 11.87L17.85 11.87Q18.24 11.87 18.37 11.73L18.37 11.73Q18.49 11.57 18.83 10.83L18.83 10.83L19.74 8.82L20.31 7.53Q20.58 6.97 20.62 6.86L20.62 6.86Q20.69 6.70 20.74 6.60Q20.79 6.51 20.80 6.45L20.80 6.45L20.90 6.21L22.33 2.74L22.62 2.74Q23.47 4.98 25.66 10.25L25.66 10.25Q26.11 11.34 26.30 11.64L26.30 11.64Q26.44 11.87 26.88 11.87L26.88 11.87L27.09 11.87L27.08 12.41L23.88 12.41L23.90 11.87L24.32 11.87Q24.93 11.87 24.93 11.70L24.93 11.70Q24.93 11.63 24.79 11.27L24.79 11.27L23.75 8.72L20.51 8.72L19.40 11.18Q19.26 11.50 19.26 11.63L19.26 11.63Q19.26 11.79 19.36 11.83Q19.46 11.87 19.84 11.87L19.84 11.87L20.41 11.87L20.41 12.41L17.69 12.41ZM22.19 4.79L20.77 8.10L23.52 8.10L22.19 4.79ZM35.16 3.64L34.77 3.64L34.78 3.08L38.00 3.08Q39.14 3.08 39.74 3.21L39.74 3.21Q40.38 3.37 40.84 3.75L40.84 3.75Q41.85 4.57 41.85 5.71L41.85 5.71Q41.85 6.43 41.38 7.04L41.38 7.04Q40.89 7.66 39.85 7.92L39.85 7.92L42.54 11.49Q42.85 11.87 43.14 11.87L43.14 11.87L43.74 11.87L43.77 12.41L41.74 12.41L38.75 8.10L38.58 8.10Q38.53 8.10 38.48 8.11Q38.42 8.11 38.41 8.11L38.41 8.11Q37.53 8.11 37.13 8.03L37.13 8.03L37.13 11.46Q37.13 11.76 37.28 11.81L37.28 11.81Q37.40 11.87 38.10 11.87L38.10 11.87L38.81 11.87L38.79 12.41L35.06 12.41L35.06 11.87L35.38 11.87Q35.85 11.87 35.92 11.81L35.92 11.81Q36.00 11.74 36.00 11.46L36.00 11.46L36.00 4.14Q36.00 3.82 35.81 3.73L35.81 3.73Q35.58 3.64 35.16 3.64L35.16 3.64ZM37.13 4.28L37.13 7.57Q37.32 7.70 38.03 7.71L38.03 7.71Q39.30 7.71 39.88 7.27L39.88 7.27Q40.47 6.84 40.47 5.92L40.47 5.92Q40.47 4.92 39.70 4.27L39.70 4.27Q38.94 3.64 37.56 3.64L37.56 3.64Q37.30 3.64 37.22 3.75L37.22 3.75Q37.14 3.84 37.13 4.28L37.13 4.28ZM52.11 3.64L51.52 3.64L51.54 3.08L55.05 3.08L55.05 3.64L54.82 3.64Q54.27 3.64 54.10 3.73L54.10 3.73Q53.96 3.81 53.96 4.28L53.96 4.28L53.96 11.22Q53.96 11.68 54.07 11.77Q54.18 11.87 54.71 11.87L54.71 11.87L55.26 11.87L55.28 12.41L51.69 12.41L51.68 11.87L52.04 11.87Q52.60 11.87 52.72 11.77Q52.83 11.67 52.83 11.25L52.83 11.25L52.83 4.14Q52.83 3.77 52.73 3.71L52.73 3.71Q52.62 3.64 52.11 3.64L52.11 3.64ZM63.03 3.64L63.01 3.08L65.19 3.08L70.92 10.48L70.92 4.14Q70.92 3.81 70.77 3.72Q70.62 3.64 70.16 3.64L70.16 3.64L69.67 3.64L69.69 3.08L72.67 3.08L72.67 3.64L72.35 3.64Q71.89 3.64 71.74 3.75Q71.59 3.86 71.59 4.25L71.59 4.25L71.59 12.32L71.59 12.47Q71.59 12.52 71.57 12.57Q71.56 12.61 71.52 12.64L71.52 12.64Q71.51 12.65 71.46 12.65L71.46 12.65L71.26 12.65L71.20 12.65L71.18 12.65L71.15 12.64Q71.12 12.64 71.11 12.63Q71.09 12.61 71.09 12.60Q71.09 12.58 71.08 12.57L71.08 12.57Q71.05 12.54 71.03 12.50L71.03 12.50Q71.01 12.48 70.99 12.45Q70.97 12.41 70.96 12.40L70.96 12.40L64.85 4.56L64.92 11.22Q64.92 11.67 65.08 11.77L65.08 11.77Q65.24 11.87 65.95 11.87L65.95 11.87L66.19 11.87L66.19 12.41L63.25 12.41L63.25 11.87L63.68 11.87Q64.05 11.87 64.16 11.76L64.16 11.76Q64.26 11.66 64.26 11.25L64.26 11.25L64.26 3.80L64.12 3.64L63.03 3.64ZM80.79 8.24L80.79 8.24Q80.79 6.92 81.41 5.72Q82.02 4.52 83.25 3.72L83.25 3.72Q84.49 2.92 86.11 2.92L86.11 2.92Q87.38 2.92 88.97 3.57L88.97 3.57L88.97 2.86L89.53 2.86L89.63 5.92L89.08 5.93L88.98 4.48Q88.90 4.41 88.63 4.24L88.63 4.24Q88.38 4.07 87.62 3.83L87.62 3.83Q86.90 3.60 86.00 3.60L86.00 3.60Q85.02 3.60 84.25 3.93Q83.48 4.27 83.02 4.83L83.02 4.83Q82.55 5.39 82.30 6.08L82.30 6.08Q82.05 6.78 82.05 7.57L82.05 7.57Q82.05 9.33 83.17 10.69Q84.29 12.05 86.15 12.05L86.15 12.05Q86.85 12.05 87.48 11.85Q88.12 11.66 88.33 11.48L88.33 11.48L88.57 11.28L88.57 8.78L86.91 8.78L86.90 8.23L90.76 8.23L90.77 8.78L89.71 8.78L89.71 11.64L88.92 11.98Q88.22 12.30 88.00 12.39L88.00 12.39Q87.75 12.48 87.10 12.61L87.10 12.61Q86.50 12.74 85.89 12.74L85.89 12.74Q84.59 12.74 83.62 12.37L83.62 12.37Q82.63 12.00 82.01 11.36L82.01 11.36Q81.42 10.76 81.10 9.94L81.10 9.94Q80.79 9.15 80.79 8.24ZM108.32 9.26L108.32 9.26Q108.32 8.63 108.58 8.15Q108.83 7.66 109.19 7.42Q109.55 7.18 109.79 7.07L109.79 7.07Q110.00 6.97 110.15 6.92L110.15 6.92L110.17 6.92L109.89 6.62Q109.66 6.38 109.44 5.92L109.44 5.92Q109.20 5.44 109.20 5.05L109.20 5.05Q109.20 4.22 109.86 3.61Q110.52 2.99 111.60 2.99L111.60 2.99Q112.42 2.99 113.05 3.46Q113.68 3.92 113.68 4.55L113.68 4.55Q113.68 5.03 113.35 5.43L113.35 5.43Q113.01 5.83 112.49 5.83L112.49 5.83Q112.23 5.83 111.98 5.74L111.98 5.74Q111.71 5.64 111.71 5.50L111.71 5.50Q111.71 5.41 111.93 5.36L111.93 5.36Q112.14 5.30 112.40 5.12L112.40 5.12Q112.64 4.95 112.64 4.61L112.64 4.61Q112.64 4.15 112.27 3.83L112.27 3.83Q111.92 3.53 111.46 3.53L111.46 3.53Q111.03 3.53 110.65 3.83L110.65 3.83Q110.30 4.13 110.30 4.56L110.30 4.56Q110.30 5.17 110.82 5.79L110.82 5.79Q111.36 6.45 112.93 7.89L112.93 7.89L113.73 8.62Q114.09 8.97 114.39 9.19L114.39 9.19L114.83 9.56Q114.86 9.58 115.24 9.86L115.24 9.86Q115.47 10.04 115.51 10.08L115.51 10.08L115.88 10.37L115.94 10.30Q116.02 10.19 116.07 10.10L116.07 10.10Q116.08 10.06 116.14 9.96Q116.20 9.85 116.23 9.80L116.23 9.80Q116.29 9.69 116.40 9.41L116.40 9.41Q116.48 9.19 116.57 8.94L116.57 8.94Q116.62 8.77 116.68 8.38L116.68 8.38Q116.72 8.09 116.72 7.78L116.72 7.78Q116.72 7.22 116.63 6.82L116.63 6.82Q116.52 6.34 116.29 6.28L116.29 6.28Q116.03 6.21 114.80 6.20L114.80 6.20L114.78 5.65L118.51 5.65L118.53 6.20Q117.38 6.23 117.31 6.25L117.31 6.25Q117.23 6.30 117.23 6.36L117.23 6.36Q117.23 6.38 117.27 6.49Q117.31 6.60 117.35 6.91L117.35 6.91Q117.41 7.36 117.41 7.82L117.41 7.82Q117.41 8.45 117.15 9.17L117.15 9.17Q116.89 9.91 116.66 10.32L116.66 10.32L116.40 10.72L116.70 10.92L116.99 11.12Q117.17 11.24 117.26 11.28L117.26 11.28Q117.43 11.38 117.56 11.42Q117.70 11.46 117.87 11.50L117.87 11.50Q118.07 11.55 118.22 11.55L118.22 11.55Q118.51 11.55 118.79 11.46L118.79 11.46Q119.02 11.40 119.13 11.39L119.13 11.39Q119.27 11.39 119.27 11.55L119.27 11.55Q119.27 12.00 118.79 12.30L118.79 12.30Q118.30 12.63 117.61 12.63L117.61 12.63Q117.30 12.63 116.78 12.39L116.78 12.39Q116.29 12.16 115.92 11.91L115.92 11.91L115.59 11.67Q115.58 11.70 115.49 11.79L115.49 11.79Q115.45 11.83 115.16 12.02L115.16 12.02Q114.85 12.24 114.60 12.33L114.60 12.33Q114.18 12.50 113.76 12.58L113.76 12.58Q113.20 12.69 112.62 12.69L112.62 12.69Q110.87 12.69 109.60 11.80Q108.32 10.90 108.32 9.26ZM109.63 8.83L109.63 8.83Q109.63 9.67 110.22 10.37L110.22 10.37Q110.79 11.04 111.62 11.39L111.62 11.39Q112.48 11.74 113.26 11.74L113.26 11.74Q113.60 11.74 113.76 11.73L113.76 11.73Q113.94 11.72 114.15 11.66L114.15 11.66Q114.21 11.64 114.33 11.61Q114.44 11.57 114.47 11.56L114.47 11.56Q114.56 11.53 114.71 11.48L114.71 11.48Q114.78 11.45 114.89 11.39L114.89 11.39Q114.92 11.38 114.96 11.35Q115.00 11.32 115.01 11.32L115.01 11.32L115.06 11.29L113.85 10.41Q112.40 9.30 110.54 7.32L110.54 7.32Q110.18 7.40 109.91 7.82L109.91 7.82Q109.63 8.26 109.63 8.83ZM136.87 3.64L136.48 3.64L136.49 3.08L139.71 3.08Q140.85 3.08 141.45 3.21L141.45 3.21Q142.09 3.37 142.56 3.75L142.56 3.75Q143.56 4.57 143.56 5.71L143.56 5.71Q143.56 6.43 143.09 7.04L143.09 7.04Q142.60 7.66 141.57 7.92L141.57 7.92L144.25 11.49Q144.56 11.87 144.85 11.87L144.85 11.87L145.46 11.87L145.48 12.41L143.45 12.41L140.46 8.10L140.29 8.10Q140.25 8.10 140.19 8.11Q140.14 8.11 140.12 8.11L140.12 8.11Q139.24 8.11 138.84 8.03L138.84 8.03L138.84 11.46Q138.84 11.76 138.99 11.81L138.99 11.81Q139.11 11.87 139.82 11.87L139.82 11.87L140.53 11.87L140.50 12.41L136.77 12.41L136.77 11.87L137.09 11.87Q137.56 11.87 137.63 11.81L137.63 11.81Q137.71 11.74 137.71 11.46L137.71 11.46L137.71 4.14Q137.71 3.82 137.52 3.73L137.52 3.73Q137.29 3.64 136.87 3.64L136.87 3.64ZM138.84 4.28L138.84 7.57Q139.03 7.70 139.74 7.71L139.74 7.71Q141.01 7.71 141.59 7.27L141.59 7.27Q142.18 6.84 142.18 5.92L142.18 5.92Q142.18 4.92 141.41 4.27L141.41 4.27Q140.65 3.64 139.27 3.64L139.27 3.64Q139.02 3.64 138.93 3.75L138.93 3.75Q138.85 3.84 138.84 4.28L138.84 4.28ZM153.25 3.64L153.23 3.08L160.45 3.08Q160.46 4.14 160.51 5.28L160.51 5.28L159.97 5.30Q159.95 4.66 159.90 4.25L159.90 4.25Q159.86 3.89 159.80 3.80L159.80 3.80Q159.75 3.71 159.63 3.69L159.63 3.69Q159.54 3.68 158.95 3.68L158.95 3.68L156.57 3.68Q156.02 3.68 155.88 3.77L155.88 3.77Q155.76 3.86 155.76 4.33L155.76 4.33L155.76 6.28Q155.76 6.69 155.81 6.76L155.81 6.76Q155.88 6.84 156.22 6.84L156.22 6.84L158.33 6.84Q158.70 6.84 158.78 6.73L158.78 6.73Q158.86 6.63 158.87 6.14L158.87 6.14L158.87 5.61L159.38 5.63L159.38 8.97L158.87 8.97L158.87 8.24Q158.87 7.66 158.79 7.57L158.79 7.57Q158.71 7.46 158.36 7.46L158.36 7.46L156.26 7.46Q155.93 7.46 155.84 7.54Q155.76 7.63 155.76 7.89L155.76 7.89L155.76 11.20Q155.76 11.57 155.84 11.67Q155.93 11.77 156.20 11.77L156.20 11.77Q159.12 11.75 159.65 11.69L159.65 11.69Q160.17 11.63 160.25 11.38L160.25 11.38L160.25 11.36L160.26 11.35L160.49 10.17L160.97 10.25L160.62 12.41L153.51 12.41L153.51 11.87L153.88 11.87Q154.44 11.87 154.53 11.80L154.53 11.80Q154.62 11.72 154.62 11.33L154.62 11.33L154.62 4.24Q154.62 3.82 154.47 3.73L154.47 3.73Q154.30 3.64 153.64 3.64L153.64 3.64L153.25 3.64ZM168.85 12.41L168.84 11.87L169.01 11.87Q169.40 11.87 169.53 11.73L169.53 11.73Q169.65 11.57 169.99 10.83L169.99 10.83L170.90 8.82L171.47 7.53Q171.74 6.97 171.78 6.86L171.78 6.86Q171.85 6.70 171.90 6.60Q171.95 6.51 171.96 6.45L171.96 6.45L172.06 6.21L173.49 2.74L173.78 2.74Q174.64 4.98 176.83 10.25L176.83 10.25Q177.28 11.34 177.47 11.64L177.47 11.64Q177.60 11.87 178.04 11.87L178.04 11.87L178.25 11.87L178.24 12.41L175.05 12.41L175.06 11.87L175.48 11.87Q176.09 11.87 176.09 11.70L176.09 11.70Q176.09 11.63 175.96 11.27L175.96 11.27L174.92 8.72L171.67 8.72L170.56 11.18Q170.43 11.50 170.43 11.63L170.43 11.63Q170.43 11.79 170.52 11.83Q170.62 11.87 171.00 11.87L171.00 11.87L171.58 11.87L171.58 12.41L168.85 12.41ZM173.35 4.79L171.94 8.10L174.68 8.10L173.35 4.79ZM185.96 10.04L185.96 10.04L186.45 9.98L186.63 10.85Q186.74 11.33 186.81 11.41Q186.88 11.49 187.29 11.64L187.29 11.64Q188.13 11.95 189.03 11.95L189.03 11.95Q189.81 11.95 190.35 11.49L190.35 11.49Q190.89 11.04 190.89 10.26L190.89 10.26Q190.89 9.65 190.43 9.21L190.43 9.21Q189.95 8.76 189.10 8.30L189.10 8.30L188.52 7.98Q187.78 7.55 187.54 7.36L187.54 7.36Q187.18 7.08 186.87 6.59Q186.56 6.10 186.56 5.46L186.56 5.46Q186.56 4.39 187.40 3.68Q188.24 2.97 189.35 2.97L189.35 2.97Q189.63 2.97 189.98 3.04L189.98 3.04Q190.18 3.08 190.51 3.17L190.51 3.17L190.75 3.25Q190.85 3.25 190.89 3.16L190.89 3.16Q190.94 3.05 190.94 2.98L190.94 2.98L190.96 2.88L191.43 2.85L191.65 5.41L191.14 5.43L191.02 4.18Q190.27 3.62 189.11 3.62L189.11 3.62Q188.47 3.62 187.96 4.05L187.96 4.05Q187.48 4.47 187.48 5.12L187.48 5.12Q187.48 5.72 187.93 6.17L187.93 6.17Q188.36 6.60 189.23 7.08L189.23 7.08L190.00 7.50Q190.96 8.03 191.49 8.59Q192.02 9.15 192.02 9.92L192.02 9.92Q192.02 10.99 191.17 11.76L191.17 11.76Q190.30 12.54 188.84 12.54L188.84 12.54Q188.28 12.54 187.78 12.41Q187.28 12.29 187.22 12.29L187.22 12.29Q186.97 12.29 186.97 12.58L186.97 12.58L186.98 12.76L186.50 12.80Q186.44 12.41 185.96 10.04ZM200.18 10.04L200.18 10.04L200.67 9.98L200.85 10.85Q200.96 11.33 201.03 11.41Q201.10 11.49 201.51 11.64L201.51 11.64Q202.35 11.95 203.25 11.95L203.25 11.95Q204.03 11.95 204.57 11.49L204.57 11.49Q205.11 11.04 205.11 10.26L205.11 10.26Q205.11 9.65 204.65 9.21L204.65 9.21Q204.17 8.76 203.31 8.30L203.31 8.30L202.74 7.98Q202.00 7.55 201.76 7.36L201.76 7.36Q201.40 7.08 201.09 6.59Q200.78 6.10 200.78 5.46L200.78 5.46Q200.78 4.39 201.62 3.68Q202.46 2.97 203.57 2.97L203.57 2.97Q203.85 2.97 204.20 3.04L204.20 3.04Q204.39 3.08 204.73 3.17L204.73 3.17L204.97 3.25Q205.06 3.25 205.11 3.16L205.11 3.16Q205.16 3.05 205.16 2.98L205.16 2.98L205.17 2.88L205.65 2.85L205.86 5.41L205.36 5.43L205.24 4.18Q204.49 3.62 203.33 3.62L203.33 3.62Q202.69 3.62 202.18 4.05L202.18 4.05Q201.70 4.47 201.70 5.12L201.70 5.12Q201.70 5.72 202.15 6.17L202.15 6.17Q202.58 6.60 203.45 7.08L203.45 7.08L204.22 7.50Q205.17 8.03 205.71 8.59Q206.24 9.15 206.24 9.92L206.24 9.92Q206.24 10.99 205.39 11.76L205.39 11.76Q204.52 12.54 203.06 12.54L203.06 12.54Q202.50 12.54 202.00 12.41Q201.50 12.29 201.44 12.29L201.44 12.29Q201.19 12.29 201.19 12.58L201.19 12.58L201.20 12.76L200.72 12.80Q200.66 12.41 200.18 10.04ZM214.81 3.64L214.42 3.64L214.42 3.08L217.79 3.08L217.80 3.64L217.27 3.64Q216.84 3.64 216.68 3.73L216.68 3.73Q216.51 3.83 216.51 4.16L216.51 4.16L216.51 9.33Q216.51 9.63 216.54 9.78L216.54 9.78Q216.58 10.01 216.75 10.41L216.75 10.41Q216.92 10.80 217.21 11.09L217.21 11.09Q217.52 11.40 218.08 11.63L218.08 11.63Q218.65 11.85 219.43 11.85L219.43 11.85Q220.29 11.85 220.83 11.67L220.83 11.67Q221.40 11.48 221.70 11.22Q222.01 10.96 222.15 10.49L222.15 10.49Q222.33 9.95 222.33 9.66L222.33 9.66Q222.36 9.18 222.37 8.67L222.37 8.67L222.37 4.14Q222.37 3.81 222.22 3.72L222.22 3.72Q222.07 3.64 221.59 3.64L221.59 3.64L221.10 3.64L221.13 3.08L223.76 3.08L223.76 3.64L223.57 3.64Q223.25 3.64 223.14 3.75Q223.02 3.86 223.02 4.25L223.02 4.25L223.02 9.22Q223.02 12.67 219.43 12.67L219.43 12.67Q217.27 12.67 216.32 11.76L216.32 11.76Q215.38 10.86 215.38 9.41L215.38 9.41L215.38 4.14Q215.38 3.81 215.28 3.72L215.28 3.72Q215.17 3.64 214.81 3.64L214.81 3.64ZM231.83 3.64L231.44 3.64L231.46 3.08L234.68 3.08Q235.81 3.08 236.41 3.21L236.41 3.21Q237.06 3.37 237.52 3.75L237.52 3.75Q238.53 4.57 238.53 5.71L238.53 5.71Q238.53 6.43 238.05 7.04L238.05 7.04Q237.56 7.66 236.53 7.92L236.53 7.92L239.22 11.49Q239.52 11.87 239.82 11.87L239.82 11.87L240.42 11.87L240.45 12.41L238.42 12.41L235.42 8.10L235.25 8.10Q235.21 8.10 235.16 8.11Q235.10 8.11 235.09 8.11L235.09 8.11Q234.21 8.11 233.81 8.03L233.81 8.03L233.81 11.46Q233.81 11.76 233.95 11.81L233.95 11.81Q234.08 11.87 234.78 11.87L234.78 11.87L235.49 11.87L235.46 12.41L231.74 12.41L231.74 11.87L232.06 11.87Q232.52 11.87 232.59 11.81L232.59 11.81Q232.67 11.74 232.67 11.46L232.67 11.46L232.67 4.14Q232.67 3.82 232.48 3.73L232.48 3.73Q232.26 3.64 231.83 3.64L231.83 3.64ZM233.81 4.28L233.81 7.57Q233.99 7.70 234.71 7.71L234.71 7.71Q235.98 7.71 236.56 7.27L236.56 7.27Q237.15 6.84 237.15 5.92L237.15 5.92Q237.15 4.92 236.37 4.27L236.37 4.27Q235.61 3.64 234.23 3.64L234.23 3.64Q233.98 3.64 233.90 3.75L233.90 3.75Q233.82 3.84 233.81 4.28L233.81 4.28ZM248.79 3.64L248.20 3.64L248.21 3.08L251.73 3.08L251.73 3.64L251.49 3.64Q250.95 3.64 250.78 3.73L250.78 3.73Q250.64 3.81 250.64 4.28L250.64 4.28L250.64 11.22Q250.64 11.68 250.75 11.77Q250.86 11.87 251.39 11.87L251.39 11.87L251.94 11.87L251.95 12.41L248.37 12.41L248.36 11.87L248.72 11.87Q249.28 11.87 249.39 11.77Q249.50 11.67 249.50 11.25L249.50 11.25L249.50 4.14Q249.50 3.77 249.40 3.71L249.40 3.71Q249.29 3.64 248.79 3.64L248.79 3.64ZM259.70 3.64L259.69 3.08L261.86 3.08L267.60 10.48L267.60 4.14Q267.60 3.81 267.45 3.72Q267.29 3.64 266.83 3.64L266.83 3.64L266.34 3.64L266.37 3.08L269.35 3.08L269.35 3.64L269.03 3.64Q268.56 3.64 268.41 3.75Q268.26 3.86 268.26 4.25L268.26 4.25L268.26 12.32L268.26 12.47Q268.26 12.52 268.25 12.57Q268.24 12.61 268.20 12.64L268.20 12.64Q268.19 12.65 268.13 12.65L268.13 12.65L267.94 12.65L267.88 12.65L267.85 12.65L267.83 12.64Q267.80 12.64 267.78 12.63Q267.77 12.61 267.77 12.60Q267.77 12.58 267.76 12.57L267.76 12.57Q267.73 12.54 267.70 12.50L267.70 12.50Q267.69 12.48 267.67 12.45Q267.65 12.41 267.63 12.40L267.63 12.40L261.53 4.56L261.60 11.22Q261.60 11.67 261.76 11.77L261.76 11.77Q261.92 11.87 262.63 11.87L262.63 11.87L262.87 11.87L262.87 12.41L259.93 12.41L259.93 11.87L260.35 11.87Q260.73 11.87 260.84 11.76L260.84 11.76Q260.93 11.66 260.94 11.25L260.94 11.25L260.94 3.80L260.80 3.64L259.70 3.64ZM277.47 8.24L277.47 8.24Q277.47 6.92 278.09 5.72Q278.70 4.52 279.93 3.72L279.93 3.72Q281.17 2.92 282.79 2.92L282.79 2.92Q284.06 2.92 285.65 3.57L285.65 3.57L285.65 2.86L286.21 2.86L286.30 5.92L285.76 5.93L285.66 4.48Q285.58 4.41 285.30 4.24L285.30 4.24Q285.05 4.07 284.30 3.83L284.30 3.83Q283.58 3.60 282.67 3.60L282.67 3.60Q281.70 3.60 280.93 3.93Q280.16 4.27 279.69 4.83L279.69 4.83Q279.23 5.39 278.98 6.08L278.98 6.08Q278.73 6.78 278.73 7.57L278.73 7.57Q278.73 9.33 279.85 10.69Q280.97 12.05 282.83 12.05L282.83 12.05Q283.53 12.05 284.16 11.85Q284.79 11.66 285.01 11.48L285.01 11.48L285.25 11.28L285.25 8.78L283.59 8.78L283.58 8.23L287.44 8.23L287.45 8.78L286.38 8.78L286.38 11.64L285.60 11.98Q284.90 12.30 284.68 12.39L284.68 12.39Q284.42 12.48 283.78 12.61L283.78 12.61Q283.17 12.74 282.56 12.74L282.56 12.74Q281.26 12.74 280.29 12.37L280.29 12.37Q279.30 12.00 278.69 11.36L278.69 11.36Q278.10 10.76 277.78 9.94L277.78 9.94Q277.47 9.15 277.47 8.24Z"></path></g></svg>